<?xml version="1.0" encoding="UTF-8" standalone="no"?>
<!DOCTYPE svg PUBLIC "-//W3C//DTD SVG 1.1//EN" "http://www.w3.org/Graphics/SVG/1.1/DTD/svg11.dtd">
<svg xmlns="http://www.w3.org/2000/svg" version="1.1" viewBox="0.00 0.00 134.00 31.00">
<path fill="#000000" d="
  M 22.16 21.08
  L 26.56 25.50
  A 0.70 0.69 49.0 0 1 26.49 26.55
  L 26.20 26.76
  A 0.42 0.42 0.0 0 1 25.65 26.72
  L 21.19 22.29
  Q 20.66 21.77 20.03 22.16
  C 11.68 27.39 2.77 16.80 9.82 9.68
  C 16.89 2.53 27.48 12.03 22.10 20.46
  Q 21.88 20.79 22.16 21.08
  Z
  M 22.14 15.49
  A 6.65 6.65 0.0 0 0 15.49 8.84
  A 6.65 6.65 0.0 0 0 8.84 15.49
  A 6.65 6.65 0.0 0 0 15.49 22.14
  A 6.65 6.65 0.0 0 0 22.14 15.49
  Z"
/>
<rect fill="#000000" x="-8.95" y="-0.77" transform="translate(50.99,10.24) rotate(0.1)" width="17.90" height="1.54" rx="0.74"/>
<path fill="#000000" d="
  M 92.37 19.76
  L 95.40 19.84
  Q 96.55 19.88 96.08 20.92
  L 95.94 21.25
  A 1.22 1.21 11.9 0 1 94.83 21.97
  L 90.43 21.95
  Q 88.91 21.95 88.92 20.43
  L 88.97 13.57
  Q 88.98 12.13 90.43 12.10
  L 95.30 12.03
  A 0.90 0.90 0.0 0 1 95.96 13.56
  L 95.56 13.97
  Q 94.79 14.77 93.76 14.37
  Q 92.73 13.97 92.49 14.14
  Q 90.24 15.76 93.00 15.79
  L 95.01 15.81
  Q 96.06 15.82 96.03 16.87
  L 96.01 17.54
  A 1.09 1.08 -83.1 0 1 94.70 18.57
  L 92.71 18.13
  A 0.75 0.75 0.0 0 0 91.81 18.80
  L 91.79 19.11
  Q 91.74 19.74 92.37 19.76
  Z"
/>
<path fill="#000000" d="
  M 99.75 15.45
  Q 100.63 16.12 101.78 16.01
  Q 102.31 15.96 102.77 16.24
  Q 104.22 17.14 104.81 18.75
  Q 105.04 19.39 104.65 19.94
  Q 101.84 23.88 96.91 20.79
  A 0.95 0.95 0.0 0 1 97.20 19.06
  L 97.95 18.89
  Q 98.49 18.77 98.84 19.20
  Q 100.00 20.65 101.80 19.75
  A 0.79 0.78 -21.0 0 0 102.21 18.84
  Q 102.09 18.39 101.54 18.16
  A 1.15 0.93 51.0 0 0 101.12 18.07
  Q 99.03 18.07 97.38 16.86
  A 1.16 1.15 -73.0 0 1 96.91 15.97
  Q 96.82 12.00 101.22 12.05
  Q 103.67 12.08 104.31 14.01
  A 0.68 0.67 68.7 0 1 103.95 14.84
  Q 102.99 15.28 102.02 14.51
  Q 100.69 13.46 99.67 14.60
  Q 99.24 15.07 99.75 15.45
  Z"
/>
<path fill="#000000" d="
  M 124.90 17.61
  L 129.94 12.55
  A 0.54 0.54 0.0 0 1 130.75 12.60
  L 131.65 13.75
  A 0.54 0.54 0.0 0 1 131.61 14.47
  L 124.88 21.16
  A 0.54 0.54 0.0 0 1 124.12 21.16
  L 117.42 14.46
  A 0.54 0.54 0.0 0 1 117.36 13.77
  L 118.12 12.71
  A 0.54 0.54 0.0 0 1 118.93 12.63
  L 124.15 17.62
  A 0.54 0.54 0.0 0 0 124.90 17.61
  Z"
/>
<rect fill="#000000" x="-8.95" y="-0.77" transform="translate(50.97,17.24) rotate(0.1)" width="17.90" height="1.54" rx="0.67"/>
<rect fill="#000000" x="-8.92" y="-0.77" transform="translate(50.94,24.23) rotate(0.1)" width="17.84" height="1.54" rx="0.72"/>
</svg>
