<?xml version="1.0" encoding="UTF-8"?>
<svg id="Capa_1" data-name="Capa 1" xmlns="http://www.w3.org/2000/svg" viewBox="0 0 278.96 233.79">
  <defs>
    <style>
      .cls-1 {
        fill: #fff;
      }
    </style>
  </defs>
  <path class="cls-1" d="m200.7,152.11c-2.51,2.57-4.96,4.98-7.37,7.22-.08.08-.16.08-.24,0h0c-.07-.08-.07-.15,0-.22.95-.93,1.69-1.99,2.2-3.16.12-.26.29-.48.51-.65.53-.41.99-.88,1.4-1.4,4.86-6.27,8.8-12.4,11.83-18.39.33-.65.37-1.67.83-2.05.27-.22.48-.49.61-.81,5.92-14.14,8.48-28.86,7.68-44.15-.09-1.76-.33-3.71-.71-5.85-.35-1.95-.7-3.89-1.05-5.83-2.2-12.11-6.7-23.03-13.5-32.75-2.51-3.59-5.13-7.12-7.85-10.59-.61-.78-1.81-1.28-2.62-2.1-11.05-11.25-24.02-18.89-38.92-22.93-4.27-1.16-8.56-2.05-12.89-2.66-3.73-.53-7.65-.78-11.77-.75-3.61.03-7.32.35-11.13.96-16.06,2.57-30.17,8.73-42.33,18.49-9.48,7.61-16.85,16.05-22.11,25.32-7.05,12.43-11.07,25.9-12.06,40.4,0,.02,0,.03-.03.03h-.29c-.11-.02-.16-.07-.16-.18-.04-4.08.31-7.92,1.05-11.53.84-4.11,1.92-8.39,3.25-12.82.01-.03,0-.07-.03-.08,0,0,0,0,0,0l-.29-.08c-.14-.04-.23,0-.27.14-3.03,9.68-4.81,19.87-5.34,30.58-.02.45.19.73.63.84.27.07.42.27.46.59.04.35-.08.42-.36.21l-.9-.67c-.25-.19-.38-.43-.39-.74-.23-7.7.5-14.87,2.18-21.52.39-1.55.75-3.05,1.07-4.49.07-.33.01-.68-.16-.98-.47-.79-.43-1.54.11-2.25.24-.33.32-.29.24.11-.09.47-.11.97-.08,1.49.03.45.14.47.32.06.19-.43.3-.93.33-1.5.01-.23-.08-.4-.29-.5-.41-.19-.53-.53-.38-1.02,4.28-13.55,11.4-25.23,21.07-35.96C78.78,12.35,100.85,1.91,124.4.25c22.52-1.59,43.29,4.33,62.31,17.76,2.42,1.71,5.71,4.49,9.87,8.32,2.61,2.42,4.69,4.96,7.13,7.41,2.36,2.37,4.17,5.33,6.15,8.02,1.47,1.97,2.78,4.04,3.94,6.19,1.55,2.87,3.41,5.55,4.66,8.56,3.26,7.83,5.52,16.07,6.79,24.74,1.34,9.2,1.36,19.45.05,30.75-.13,1.13-.35,1.93-.64,2.4-1.11,1.77.05,2.31-.39,3.69-.05.17-.13.33-.24.48-.23.29-.37.62-.43.99-1.13,7.03-3.63,12.55-6.42,18.85-1.15,2.58-2.47,5.08-3.98,7.49-1.98,3.18-3.82,6.42-6.2,9.28-2.84,3.42-5.33,6.88-8.7,9.94-3.69,3.36-7,6.65-10.98,9.59-13.13,9.68-28.37,15.62-45.72,17.83-3.11.39-7.91.73-10.67-.7-.74-.38-.7-.54.13-.48,4.03.29,7.87.3,11.54.03.29-.02.44-.18.43-.47v-.29c0-.13-.06-.19-.19-.19-3.6-.11-7.18-.44-10.74-.99-.06-.01-.06-.02,0-.02,1.45-.04,2.72-.2,4.14.09,1.65.35,3.3.37,4.96.07.35-.06.69-.03,1.02.09,1.92.71,3.93.84,6.03.4.07-.01.11-.06.12-.14v-.27c.03-.25-.08-.36-.33-.33-1.32.16-2.63-.03-3.92-.58-.48-.21-.46-.31.06-.32.85,0,1.64.12,2.37.35.32.1.63.07.93-.08.49-.25.94-.22,1.36.09.38.28.85.39,1.31.32.74-.11,1.5-.04,2.28.23.58.2.66.07.25-.39-.26-.29-.62-.43-1.07-.42-.62.01-.69-.17-.2-.55.7-.56,1.41-.53,2.13.09.26.22.51.21.74-.04,1.11-1.18,2.5-1.48,4.15-.89.13.05.27-.02.32-.15.02-.05.02-.09,0-.14-.03-.11-.12-.17-.27-.18-.09,0-.09-.03-.02-.06,1.59-.78,3.34-1.49,5.25-2.12,1.61-.54,3.27-1.21,5-2,14.26-6.55,25.98-15.76,35.15-27.63,2.83-3.66,5.78-8.32,8.87-13.99.51-.25.68-.63.53-1.12-.11-.34-.01-.6.29-.79.12-.07.24-.07.36-.02.57.26.7.12.4-.42-.08-.14-.12-.29-.13-.45-.02-.34.07-.65.26-.93,1.15-1.72,2.31-3.42,2.89-5.44.58-1.99,1.27-3.89,2.07-5.72.63-1.43.96-2.96.98-4.58,0-.24.09-.48.24-.67,1.31-1.72.83-3.21,1.24-5.12,2.01-9.51,2.7-19.28,2.07-29.3-.03-.35-.14-.66-.34-.94-.59-.81-.73-1.71-.42-2.7.08-.26.06-.51-.06-.76-.05-.09-.11-.17-.2-.22-.27-.17-.41-.1-.44.22-.17,1.85-.04,3.54.38,5.08.43,1.58.56,3.18.38,4.81-.39,3.45,0,6.98-.46,10.42-.32,2.38-.66,4.83-1.01,7.36-.35,2.44-.85,4.91-1.51,7.42-1.49,5.64-3.24,11-5.23,16.07-.64,1.64-1.46,3.24-2.45,4.8-.43.66-.38,1.3-.78,2.05-9.47,18.15-23.58,31.69-42.35,40.62-.07.03-.15,0-.19-.07,0,0,0,0,0-.01l-.09-.25c-.09-.27.01-.43.29-.48,1.45-.25,2.71-.95,3.79-2.09.12-.12.27-.17.44-.15.03,0,.06.01.09.04.12.11.25.12.4.03.17-.11.25-.27.26-.48.01-.25-.1-.34-.35-.29-.11.03-.16-.04-.15-.19,0-.07.04-.11.1-.14,5.3-2.81,11.01-7.02,17.12-12.61,4.17-3.82,7.42-7.68,9.75-11.58.41-.69.34-.74-.22-.17ZM160.47,5.99c1.69,1.05,3.38,1.83,5.07,2.33.77.23.8.15.09-.23-1.56-.83-3.28-1.53-5.16-2.1-3.95-1.72-7.79-2.8-11.5-3.23-1.45-.17-1.47-.08-.05.28l11.55,2.95Zm18.17,8.88c-.56-.45-1.14-.84-1.74-1.15-.45-.23-.5-.17-.15.2.57.6,1.25.96,2.04,1.07.04,0,.06-.02.07-.05,0,0,0-.01-.01-.01,0,0,0,0,0,0h-.05c-.06,0-.11-.02-.15-.05Zm9.12,6.55c.39.14.74.38,1,.71.41.5.85,1.01,1.31,1.52.4.45.46.4.19-.13-.69-1.34-1.84-2.35-3.46-3.02-.53-.22-.59-.14-.16.25.33.3.7.52,1.12.67Zm8.64,7.48c-.97-.62-1.89-1.35-2.75-2.18-.05-.05-.08-.04-.07.04,0,.03,0,.07,0,.1,0,.06.03.11.07.16.69.84,1.54,1.59,2.55,2.25.1.06.18.05.24-.04h0c.09-.14.07-.24-.06-.33Zm17.64,24.86c.07.11.03.25-.08.32h0c-.11.07-.25.03-.32-.08l-5.89-9.81c-.07-.11-.03-.25.08-.32h0c.11-.07.25-.03.32.08l5.89,9.81Zm5.41,15.48c.03-.67-.15-1.23-.54-1.67-.34-.39-.46-.34-.35.17.12.54.29,1.06.52,1.57.22.49.34.47.37-.07Zm2.17,7.29c-.06.35-.1.7-.13,1.06-.04.45.09.5.39.16.35-.41.54-.87.57-1.36.01-.21-.09-.33-.31-.36-.11-.01-.21.02-.3.1-.12.1-.19.24-.22.4Zm-8.54,66.79c-.39.37-.65.81-.8,1.32-.16.58-.05.64.32.17.79-1,1.31-2.06,1.55-3.18.07-.3-.02-.35-.26-.16-.27.23-.41.52-.4.88,0,.38-.14.7-.41.97Zm-23.95,27.86c-3.5,2.78-7.12,5.37-10.86,7.76-.06.05-.07.1-.03.17h0c.05.09.11.11.2.06,11.35-6.52,21-15.26,28.95-26.23,1.14-1.58,2.18-3.15,3.12-4.7.02-.03,0-.07-.02-.09l-.22-.12c-.13-.07-.23-.04-.3.08-5.53,8.75-12.47,16.44-20.84,23.07Z"/>
  <path class="cls-1" d="m96.85,161.65c4.17.49,9.64-3.62,12.82-6.26,6.57-5.45,12.61-11.81,18.14-19.08,13.07-17.17,23.54-36,31.42-56.49,3.49-9.08,6.07-18.39,7.74-27.94.64-3.69,2.51-16.19-.95-18.3-1-.61-2.3-.35-2.98.6l-1.66,2.31c-.21.29-.62.35-.91.14-.14-.11-.24-.27-.26-.44-.06-.44-.01-.87.14-1.29.99-2.72,2.72-3.98,5.17-3.78,3.09.25,5.18,3.66,5.47,6.44.45,4.27.2,9.1-.75,14.49-1.18,6.71-2.84,13.5-4.97,20.37-9.25,29.75-24.69,55.74-46.3,77.99-4.06,4.18-9.03,8.21-14.26,11.25-7.03,4.09-12.82,2.14-13.14-6.61-.15-4.01.47-10.31,1.85-18.9,2.17-13.47,5.15-26.38,8.94-38.74,2.13-6.96,5.06-15.85,8.79-26.66.32-.92.64-1.83.96-2.74,2.19-6.14,4.36-11.7,6.51-16.68.25-.59.78-1.08,1.58-1.49.19-.09.37-.1.56-.01.48.21.71.75.53,1.24-7.36,19.95-13.61,39.48-18.76,58.59-3.07,11.37-5.38,22.44-6.93,33.21-.55,3.81-.84,8.01-.88,12.59-.01,2.13.43,4.01,1.32,5.64.18.32.45.5.81.55Z"/>
  <path class="cls-1" d="m68.03,166.62c-7.6-6.96-13.73-14.59-18.4-22.89-.06-.11-.03-.2.08-.27h.01c.11-.07.2-.05.27.06.32.43.62.87.89,1.33,6.48,10.73,14.52,19.71,24.13,26.94.11.08.12.17.04.28h0c-.09.14-.21.16-.34.06-2.36-1.76-4.59-3.6-6.68-5.51Z"/>
  <path class="cls-1" d="m189.55,160.89s.07-.06.08-.05l.18.21c.11.13.1.26-.04.38l-5.21,4.23c-.07.06-.14.05-.2-.02l-.18-.22s.02-.03.08-.08l5.29-4.45Z"/>
  <path class="cls-1" d="m83.49,174.53c-.17-.04-.29-.14-.37-.31-.12-.23-.06-.3.18-.19.85.37,1.64.87,2.37,1.5.07.05.07.12.02.19l-.14.21s-.04.03-.05.01c0,0,0,0,0,0-.52-.48-1.05-.89-1.6-1.24-.13-.08-.26-.14-.4-.17Z"/>
  <path class="cls-1" d="m91.06,178.8c-1.41-.59-2.84-1.37-4.27-2.36-.09-.06-.1-.13-.05-.22h0c.08-.15.19-.18.34-.09,1.79,1.07,3.66,2.04,5.6,2.89,1.28.57,1.7,1.59,3.36,1.79.1.01.14.07.13.17h0c-.01.14-.09.2-.23.18-2.05-.3-3.06-1.61-4.89-2.36Z"/>
  <path class="cls-1" d="m100.73,186.31c-.86-.02-1.56-.31-2.09-.87-.29-.3-.23-.38.16-.25.69.23,1.34.61,1.93,1.12Z"/>
  <path class="cls-1" d="m100.73,186.31c.68-.09,1.49.13,2.42.66.41.24.39.32-.08.25-.72-.11-1.5-.42-2.34-.91Z"/>
  <ellipse class="cls-1" cx="107.34" cy="188.25" rx=".19" ry="2.97" transform="translate(-101.79 245.04) rotate(-75.5)"/>
  <ellipse class="cls-1" cx="124.98" cy="190.78" rx=".19" ry="1.99" transform="translate(-80.82 289.08) rotate(-82.3)"/>
  <path class="cls-1" d="m44.23,210.24c-.59.48-1.01,1.1-1.26,1.85-.08.24-.33.36-.57.28-.07-.02-.14-.07-.19-.12l-.17-.18c-.25-.27-.33-.66-.21-1.01,1.09-3.07,3.62-2.69,5.47-.7.21.23.45.36.74.41.97.15,1.56-.36,1.77-1.53.04-.2.19-.35.39-.38l.44-.07c.37-.05.53.11.48.48-.4,3.06-2.82,4.22-5.13,1.81-.25-.26-.5-.52-.75-.77-.32-.33-.66-.35-1.01-.07Z"/>
  <path class="cls-1" d="m218.16,224.85c.15,4.75-3.58,8.73-8.34,8.88h0l-1.72.05c-4.75.15-8.73-3.58-8.88-8.34h0l-.07-2.3c-.15-4.75,3.58-8.73,8.34-8.88h0l1.72-.05c4.75-.15,8.73,3.58,8.88,8.34h0l.07,2.3Zm-9.52,6.53c3.85.03,7-3.25,7.03-7.32h0c.03-4.07-3.07-7.39-6.93-7.42-3.85-.03-7,3.25-7.03,7.32h0c-.03,4.07,3.07,7.39,6.93,7.42Z"/>
  <path class="cls-1" d="m7.93,229.02c.29.81.58.81.87,0l5.15-14.3c.1-.27.29-.4.57-.41l1.77-.02c.41,0,.54.19.4.57l-6.64,18.22c-.18.5-.53.7-1.06.59-.41-.09-.83-.07-1.26.04-.5.13-.84-.05-1.02-.54L.05,214.85c-.12-.34,0-.52.36-.53l1.64-.05c.37-.01.7.21.82.55l5.07,14.2Z"/>
  <rect class="cls-1" x="25.23" y="214.3" width="2.76" height="19.36" rx=".37" ry=".37"/>
  <path class="cls-1" d="m41.13,219.38l-.02,13.72c0,.36-.18.55-.54.58-.72.05-1.34,0-1.86-.16-.23-.07-.35-.22-.35-.46l-.02-18.19c0-.39.19-.58.57-.57h2.01c.27,0,.47.12.62.35l9.36,14.03c.39.59.59.53.59-.18v-13.95c-.01-.14.1-.25.24-.25h2.26c.16,0,.24.09.24.26v18.57c0,.39-.19.58-.58.57l-2.04-.06c-.3-.01-.53-.14-.69-.39l-9.2-14.04c-.39-.6-.59-.54-.59.17Z"/>
  <path class="cls-1" d="m75.02,229.16l-7.56.05c-.42,0-.7.2-.83.59l-.87,2.67c-.23.68-.69,1.06-1.4,1.15l-.84.11c-.77.1-1.02-.21-.74-.94,2.25-5.92,4.32-11.54,6.21-16.85.56-1.59,1.73-2.14,3.5-1.65.31.09.53.28.64.59l6.72,18.03c.22.59.02.85-.61.8l-1.47-.13c-.56-.05-1.02-.48-1.1-1.04-.15-1.05-.49-2.04-1-2.99-.14-.26-.36-.39-.65-.39Zm-7.01-2.72c-.05.16.04.33.2.38.03,0,.06.01.09.01l6.16-.07c.17,0,.3-.14.3-.3,0-.03,0-.07-.02-.1l-3.19-8.69c-.06-.15-.24-.23-.39-.17-.08.03-.14.1-.17.18l-2.98,8.76Z"/>
  <path class="cls-1" d="m100.14,214.95c0-.37.3-.67.67-.67h5.79c4.97-.02,9.01,3.98,9.02,8.93,0,0,0,0,0,.01v1.5c0,4.94-4.01,8.96-8.98,8.97h-5.79c-.37,0-.67-.29-.67-.66h0l-.04-18.08Zm2.83,2.17l-.02,13.8c0,.19.16.35.35.35h3.18c3.43.02,6.21-2.76,6.22-6.18h0v-2.1c0-3.42-2.77-6.2-6.2-6.21h-3.18c-.19,0-.35.15-.35.34h0Z"/>
  <path class="cls-1" d="m128.03,231.33l6.7-.05c.24,0,.45.17.49.41l.24,1.41c.04.27-.14.52-.4.56-.03,0-.05,0-.08,0h-9.64c-.27,0-.49-.23-.49-.5l-.02-18.4c0-.27.22-.49.49-.49h0l9.46.02c.25,0,.45.19.48.44l.15,1.49c.03.27-.17.51-.44.54-.02,0-.04,0-.05,0l-6.86.03c-.27,0-.49.22-.49.49l.02,5.03c0,.27.22.49.49.49h5.91c.27-.01.49.21.49.48,0,0,0,0,0,.01v1.52c0,.27-.23.49-.5.49,0,0,0,0-.01,0l-5.86-.02c-.27,0-.48.21-.49.48l-.08,5.06c0,.27.21.49.48.5,0,0,0,0,.01,0Z"/>
  <path class="cls-1" d="m147.84,231.33h5.69c.26-.01.47.2.48.46l.02,1.39c0,.27-.2.48-.47.49,0,0,0,0-.01,0l-8.49.05c-.27,0-.48-.21-.48-.48l.04-18.4c0-.27.21-.48.48-.48l1.78-.02c.27,0,.48.21.48.48h0v16.03c0,.27.21.48.48.48Z"/>
  <path class="cls-1" d="m187.11,228.57v-13.84c0-.29.15-.44.44-.44h1.75c.31.02.55.27.55.58v18.17c.01.41-.2.62-.61.63l-1.85.02c-.34,0-.6-.13-.79-.42l-9.1-13.87c-.51-.78-.77-.71-.77.22v13.67c0,.33-.16.48-.49.45l-1.56-.13c-.38-.03-.57-.23-.57-.61v-18.15c0-.37.19-.56.57-.56l1.7.02c.41,0,.72.18.95.51l9.26,13.9c.35.52.52.47.52-.15Z"/>
  <path class="cls-1" d="m236.05,225.46l4.99,7.94c.05.08.03.12-.07.13l-2.77.09c-.16,0-.28-.06-.36-.2l-4.69-8.05c-.12-.21-.3-.35-.55-.4-.59-.13-1.21-.14-1.85-.02-.37.07-.55.29-.54.66l.05,7.7c0,.19-.1.29-.3.3l-2.17.07c-.17,0-.31-.13-.32-.3,0,0,0,0,0-.01v-18.53c0-.35.17-.53.52-.54,4.19-.13,10.33-1.05,11.69,3.97.8,2.97-.34,5.13-3.41,6.49-.35.15-.42.38-.22.7Zm-5.83-8.56v5.8c0,.13.11.24.24.24h3.55c1.78,0,3.23-1.22,3.23-2.72v-.84c0-1.5-1.45-2.72-3.23-2.72h-3.55c-.13,0-.24.11-.24.24h0Z"/>
  <path class="cls-1" d="m252.05,216.8h-4.13c-.24,0-.44-.2-.44-.44h0l-.02-1.63c0-.24.2-.44.44-.44h11.69c.23,0,.42.18.44.41l.15,1.6c.02.24-.16.46-.4.48-.01,0-.02,0-.03,0l-4.22.02c-.24,0-.44.2-.44.44h0l.05,15.95c0,.24-.19.43-.43.44l-1.79.06c-.24,0-.44-.19-.45-.43,0,0,0,0,0-.01l.02-16.01c0-.24-.2-.44-.44-.44h0Z"/>
  <path class="cls-1" d="m271.08,225.75v5.07c0,.27.21.48.48.48h6.66c.23,0,.43.15.47.38l.26,1.38c.04.26-.13.51-.39.55-.03,0-.05,0-.08,0l-9.63.07c-.27,0-.48-.21-.48-.48h0l-.05-18.44c0-.27.21-.48.48-.48l9.46.02c.24,0,.44.18.47.42l.18,1.5c.03.26-.15.5-.42.54-.02,0-.04,0-.05,0l-6.9.03c-.27,0-.48.21-.48.48h0l.05,5.06c0,.27.21.48.48.48l5.91-.02c.27,0,.48.21.48.48,0,0,0,0,0,.01v1.54c0,.27-.22.48-.49.48,0,0,0,0-.01,0l-5.92-.04c-.27,0-.48.21-.48.48h0Z"/>
</svg>